<svg viewBox="0 0 512 512" xmlns="http://www.w3.org/2000/svg" xmlns:xlink="http://www.w3.org/1999/xlink"><style>:root&gt;svg{display:none}:root&gt;svg:target{display:block}</style><svg viewBox="0 0 469.038 469.038" id="icon_1" xmlns="http://www.w3.org/2000/svg"><path d="M465.023 4.079c-3.9-3.9-9.9-5-14.9-2.8l-442 193.7c-4.7 2.1-7.8 6.6-8.1 11.7s2.4 9.9 6.8 12.4l154.1 87.4 91.5 155.7c2.4 4.1 6.9 6.7 11.6 6.7h.8c5.1-.3 9.5-3.4 11.6-8.1l191.5-441.8c2.2-5.1 1.1-11-2.9-14.9zm-70.3 50.9l-226.2 224.7-124.9-70.8 351.1-153.9zm-132.5 370.6l-74.5-126.9 227.5-226-153 352.9z" fill="#c3c1cc"/></svg>
<svg viewBox="0 0 479 479" id="icon_2" xmlns="http://www.w3.org/2000/svg">
<g fill="#c3c1cc"><path d="M158.4 196.8c-5.3 5.3-5.3 13.8 0 19.1l71.6 71.6c2.6 2.6 6.1 4 9.5 4s6.9-1.3 9.5-4l71.6-71.6c5.3-5.3 5.3-13.8 0-19.1s-13.8-5.3-19.1 0L253 245.3V13.5C253 6 247 0 239.5 0S226 6 226 13.5v231.8l-48.5-48.5c-5.3-5.3-13.9-5.3-19.1 0z"/><path d="M460.2 307.4l-47-170c-1.1-3.9-3.8-7-7.4-8.7l-1.3-.6c-1.8-.8-3.7-1.2-5.6-1.2h-84.7c-7.5 0-13.5 6-13.5 13.5s6 13.5 13.5 13.5h75.6l39.7 143.8h-105c-7.5 0-13.5 6-13.5 13.5v12.2c0 17.9-14.5 32.4-32.4 32.4h-82.4c-17.9 0-32.4-14.5-32.4-32.4v-12.2c0-7.5-6-13.5-13.5-13.5H49.4l39.9-144.1h75.6c7.5 0 13.5-6 13.5-13.5s-6-13.5-13.5-13.5H80.1c-1.9 0-3.8.4-5.6 1.2l-1.3.6c-3.6 1.7-6.4 4.8-7.4 8.7l-47 170c-.3 1.2-.5 2.4-.5 3.6v70.9c0 53.7 43.7 97.4 97.4 97.4h247.6c53.7 0 97.4-43.7 97.4-97.4V311c0-1.3-.1-2.5-.5-3.6zm-26.5 74.2c0 38.8-31.6 70.4-70.4 70.4H115.7c-38.8 0-70.4-31.6-70.4-70.4v-56.9H137c.7 32.1 27.1 58 59.4 58h82.4c32.3 0 58.7-25.9 59.4-58h95.7v56.9h-.2z"/>
</g></svg>
<svg viewBox="0 0 473 473" id="icon_3" xmlns="http://www.w3.org/2000/svg"><g fill="#00b00b"><path d="M403.581 69.3c-44.7-44.7-104-69.3-167.2-69.3s-122.5 24.6-167.2 69.3c-86.4 86.4-92.4 224.7-14.9 318-7.6 15.3-19.8 33.1-37.9 42-8.7 4.3-13.6 13.6-12.1 23.2s8.9 17.1 18.5 18.6c4.5.7 10.9 1.4 18.7 1.4 20.9 0 51.7-4.9 83.2-27.6 35.1 18.9 73.5 28.1 111.6 28.1 61.2 0 121.8-23.7 167.4-69.3 44.7-44.7 69.3-104 69.3-167.2s-24.7-122.5-69.4-167.2zm-19.1 315.3c-67.5 67.5-172 80.9-254.2 32.6-5.4-3.2-12.1-2.2-16.4 2.1-.4.2-.8.5-1.1.8-27.1 21-53.7 25.4-71.3 25.4h-.1c20.3-14.8 33.1-36.8 40.6-53.9 1.2-2.9 1.4-5.9.7-8.7-.3-2.7-1.4-5.4-3.3-7.6-73.2-82.7-69.4-208.7 8.8-286.9 81.7-81.7 214.6-81.7 296.2 0 81.8 81.7 81.8 214.5.1 296.2z"/><circle cx="236.381" cy="236.5" r="16.6"/><circle cx="321.981" cy="236.5" r="16.6"/><circle cx="150.781" cy="236.5" r="16.6"/></g></svg></svg>